<?xml version="1.0" encoding="UTF-8"?><svg id="Layer_1" xmlns="http://www.w3.org/2000/svg" viewBox="0 0 595.28 595.28"><defs><style>.cls-1{fill:#170b3d;}</style></defs><path class="cls-1" d="M294.74,280.21l-2.38,5.11-.19.41-3.65,7.83-13.12,28.16-3.2,6.88-23.68-61.2h13.6l11.57,34.05,9.01-22.43-4.66-11.62h11.52l5.18,12.81ZM302.79,300.09l-3.34-8.24-6.24,13.4,9.31,23.19,22.72-61.04h-12.48l-9.97,32.69ZM209,267h-11.76v23.14l11.76-13.42v-9.72ZM244.68,267h-15.04l-9.91,11.19-2.12,2.39-4,4.52-3.17,3.58-.63.8-1.13,1.44.02-.17-11.46,13.08v22.05h11.76v-22.24l2.88-2.88,18.16,25.12h14.72l-24.4-32.48,24.32-26.4ZM335.4,325.88h11.6v-58.88h-11.6v58.88ZM393.08,297.6c-1.33-1.31-2.84-2.4-4.52-3.28s-3.37-1.64-5.08-2.28c-1.87-.69-3.67-1.47-5.4-2.32-1.73-.85-3.15-1.83-4.24-2.92-1.09-1.09-1.64-2.33-1.64-3.72,0-2.03.72-3.55,2.16-4.56,1.44-1.01,3.41-1.52,5.92-1.52,2.03,0,4.2.4,6.52,1.2,2.32.8,4.6,1.81,6.84,3.04l4.4-8.88c-2.35-1.55-5-2.88-7.96-4-2.96-1.12-6.81-1.68-11.56-1.68-3.63.16-6.83.97-9.6,2.44-2.77,1.47-4.92,3.45-6.44,5.96-1.52,2.51-2.28,5.47-2.28,8.88,0,2.83.52,5.21,1.56,7.16,1.04,1.95,2.4,3.57,4.08,4.88,1.68,1.31,3.48,2.41,5.4,3.32,1.92.91,3.79,1.71,5.6,2.4,1.55.59,2.97,1.28,4.28,2.08,1.31.8,2.35,1.68,3.12,2.64.77.96,1.16,2.03,1.16,3.2,0,1.71-.47,3.04-1.4,4-.93.96-2.11,1.64-3.52,2.04-1.41.4-2.81.6-4.2.6s-2.91-.21-4.56-.64c-1.65-.43-3.29-1.03-4.92-1.8-1.63-.77-3.13-1.67-4.52-2.68l-5.12,9.04c2.08,1.44,4.24,2.63,6.48,3.56,2.24.93,4.52,1.63,6.84,2.08,2.32.45,4.6.68,6.84.68,4.37,0,8.05-.79,11.04-2.36,2.99-1.57,5.25-3.64,6.8-6.2,1.55-2.56,2.32-5.33,2.32-8.32,0-2.83-.4-5.21-1.2-7.16-.8-1.95-1.87-3.57-3.2-4.88Z"/></svg>